<?xml version="1.0" encoding="UTF-8"?>
<svg xmlns="http://www.w3.org/2000/svg" viewBox="0 0 31.4 34.22">
  <defs>
    <style>
      .cls-1 {
        stroke-width: 0px;
      }

      .cls-2 {
        fill: none;
        stroke: #000;
        stroke-miterlimit: 10;
        stroke-width: 14px;
      }
    </style>
  </defs>
  <g id="Layer_1" data-name="Layer 1">
    <path class="cls-1" d="M15.78,14.64c2.59.04,2.59-4.04,0-4-2.59-.04-2.59,4.04,0,4ZM15.78,11.64c1.3-.02,1.3,2.02,0,2-1.3.02-1.3-2.02,0-2Z"/>
    <path class="cls-1" d="M26.26,17.33c2.58-1.6,1.12-7.36.89-7.84-.61.23-.57.15-1.47.66.68-2.78-4.95-5.49-5.15-5.52-.26.81-2.17,4.33,1.12,8.57.07.72.15,1.4.11,2.06h.01c-.36,12.77-11.62,12.74-11.99,0h.01c-.03-.66.04-1.34.11-2.06,3.29-4.25,1.38-7.76,1.12-8.57-.18.03-5.84,2.75-5.15,5.52-.9-.51-.87-.43-1.47-.66-.24.46-1.69,6.24.89,7.84-1.01.26-.97.3-1.51.52.23.69.52,2.79,3.09,4.62-1.27.96-1.31,1.16-1.77,1.71.57.5,1.74,1.96,4.67,2.41-.42,1.05-.36,1.01-.51,1.62,2.03.7,4.92.82,6.5-1.14,1.58,1.96,4.48,1.84,6.5,1.14-.15-.62-.08-.57-.51-1.62,2.94-.45,4.1-1.91,4.67-2.41-.46-.55-.51-.75-1.77-1.71,2.58-1.84,2.86-3.92,3.1-4.62-.54-.22-.5-.26-1.51-.52ZM6.99,9.03c.8-1.43,2.62-2.55,3.5-3.03.34,1.16.86,4.1-1.5,6.75-.8-.64-2.74-2.39-2-3.72ZM5.12,15.6c-.61-1.58-.26-3.74-.04-4.75,1.29.35,4.24,3.73,3.81,6.48-1.39-.28-3.14-.22-3.76-1.73h0ZM5,18.45c.43-.13,1.16-.32,1.96-.33h0c.67-.03,1.4.05,2.1.34.2,1.02.52,1.93.89,2.75-.78.11-1.48.36-2.09.67-1.73-.89-2.56-2.62-2.87-3.42h0ZM6.49,24.1c.61-.61,2.06-1.81,3.96-1.94.36.6.75,1.14,1.17,1.6-.59.64-1.05,1.28-1.38,1.87-1.69-.05-3.12-1.01-3.76-1.53h0ZM10.49,27.52c.23-.65.76-1.88,1.84-3.05.94.82,1.97,1.33,2.95,1.55-1.09,2.03-3.7,1.73-4.79,1.5h0ZM26.48,10.85c.83,2.82.34,6.73-3.8,6.49-.44-2.76,2.52-6.15,3.8-6.49ZM21.07,6c2.95,1.51,5.42,4.07,1.5,6.75-2.36-2.65-1.84-5.58-1.5-6.75ZM16.28,26.02c.98-.22,2.01-.73,2.95-1.55,1.07,1.17,1.61,2.4,1.83,3.05-1.09.23-3.7.53-4.79-1.5ZM25.06,24.1c-.64.52-2.07,1.48-3.76,1.53-.33-.58-.78-1.23-1.37-1.86.42-.47.82-1,1.17-1.61,1.89.13,3.34,1.33,3.95,1.94h0ZM23.69,21.87c-.6-.31-1.3-.56-2.08-.67.38-.82.69-1.73.89-2.75.7-.28,1.42-.36,2.09-.34h0c.81.02,1.54.21,1.97.34-.3.81-1.13,2.54-2.87,3.42h0Z"/>
    <path class="cls-1" d="M13.28,17.64c-.07-1.64,3.12-.81,4-1,1.44-.04.91,2.16,1,3h1c.5-4.28-1.52-4.14-5-4-2.16-.03-2.09,2.47-2,4h1v-2Z"/>
  </g>
  <g id="_레이어_2" data-name="레이어 2">
    <path class="cls-2" d="M11.09,4.81s-5.15,5.45-3.9,12.53,8.58,9.73,8.58,9.73c0,0,6.67-.79,8.31-8.96s-3.59-13.29-3.55-13.48"/>
  </g>
</svg>